 solid STL
 facet normal -2 0 0
  outer loop
   vertex 0 0 0
   vertex 0 0 2
   vertex 0 1 1
  endloop
 endfacet
 facet normal -2 0 0
  outer loop
   vertex 0 0 2
   vertex 0 2 2
   vertex 0 1 1
  endloop
 endfacet
 facet normal -2 0 0
  outer loop
   vertex 0 2 2
   vertex 0 2 0
   vertex 0 1 1
  endloop
 endfacet
 facet normal -2 0 0
  outer loop
   vertex 0 2 0
   vertex 0 0 0
   vertex 0 1 1
  endloop
 endfacet
 facet normal -2 0 0
  outer loop
   vertex 2 0 0
   vertex 2 0 2
   vertex 2 1 1
  endloop
 endfacet
 facet normal -2 0 0
  outer loop
   vertex 2 0 2
   vertex 2 2 2
   vertex 2 1 1
  endloop
 endfacet
 facet normal -2 0 0
  outer loop
   vertex 2 2 2
   vertex 2 2 0
   vertex 2 1 1
  endloop
 endfacet
 facet normal -2 0 0
  outer loop
   vertex 2 2 0
   vertex 2 0 0
   vertex 2 1 1
  endloop
 endfacet
 facet normal 0 2 0
  outer loop
   vertex 0 0 0
   vertex 0 0 2
   vertex 1 0 1
  endloop
 endfacet
 facet normal 0 2 0
  outer loop
   vertex 0 0 2
   vertex 2 0 2
   vertex 1 0 1
  endloop
 endfacet
 facet normal 0 2 0
  outer loop
   vertex 2 0 2
   vertex 2 0 0
   vertex 1 0 1
  endloop
 endfacet
 facet normal 0 2 0
  outer loop
   vertex 2 0 0
   vertex 0 0 0
   vertex 1 0 1
  endloop
 endfacet
 facet normal 0 2 0
  outer loop
   vertex 0 2 0
   vertex 0 2 2
   vertex 1 2 1
  endloop
 endfacet
 facet normal 0 2 0
  outer loop
   vertex 0 2 2
   vertex 2 2 2
   vertex 1 2 1
  endloop
 endfacet
 facet normal 0 2 0
  outer loop
   vertex 2 2 2
   vertex 2 2 0
   vertex 1 2 1
  endloop
 endfacet
 facet normal 0 2 0
  outer loop
   vertex 2 2 0
   vertex 0 2 0
   vertex 1 2 1
  endloop
 endfacet
 facet normal 0 2 0
  outer loop
   vertex 0 0.5 0
   vertex 0 0.5 2
   vertex 1 0.5 1
  endloop
 endfacet
 facet normal 0 2 0
  outer loop
   vertex 0 0.5 2
   vertex 2 0.5 2
   vertex 1 0.5 1
  endloop
 endfacet
 facet normal 0 2 0
  outer loop
   vertex 2 0.5 2
   vertex 2 0.5 0
   vertex 1 0.5 1
  endloop
 endfacet
 facet normal 0 2 0
  outer loop
   vertex 2 0.5 0
   vertex 0 0.5 0
   vertex 1 0.5 1
  endloop
 endfacet
 facet normal 0 2 0
  outer loop
   vertex 0 1 0
   vertex 0 1 2
   vertex 1 1 1
  endloop
 endfacet
 facet normal 0 2 0
  outer loop
   vertex 0 1 2
   vertex 2 1 2
   vertex 1 1 1
  endloop
 endfacet
 facet normal 0 2 0
  outer loop
   vertex 2 1 2
   vertex 2 1 0
   vertex 1 1 1
  endloop
 endfacet
 facet normal 0 2 0
  outer loop
   vertex 2 1 0
   vertex 0 1 0
   vertex 1 1 1
  endloop
 endfacet
 facet normal 0 2 0
  outer loop
   vertex 0 1.5 0
   vertex 0 1.5 2
   vertex 1 1.5 1
  endloop
 endfacet
 facet normal 0 2 0
  outer loop
   vertex 0 1.5 2
   vertex 2 1.5 2
   vertex 1 1.5 1
  endloop
 endfacet
 facet normal 0 2 0
  outer loop
   vertex 2 1.5 2
   vertex 2 1.5 0
   vertex 1 1.5 1
  endloop
 endfacet
 facet normal 0 2 0
  outer loop
   vertex 2 1.5 0
   vertex 0 1.5 0
   vertex 1 1.5 1
  endloop
 endfacet