 solid STL
 facet normal -2 0 0
  outer loop
   vertex 0 0 0
   vertex 0 0 2
   vertex 0 1 1
  endloop
 endfacet
 facet normal -2 0 0
  outer loop
   vertex 0 0 2
   vertex 0 2 2
   vertex 0 1 1
  endloop
 endfacet
 facet normal -2 0 0
  outer loop
   vertex 0 2 2
   vertex 0 2 0
   vertex 0 1 1
  endloop
 endfacet
 facet normal -2 0 0
  outer loop
   vertex 0 2 0
   vertex 0 0 0
   vertex 0 1 1
  endloop
 endfacet
 facet normal 2 0 0
  outer loop
   vertex 0 0 0
   vertex 0 2 0
   vertex 0 1 1
  endloop
 endfacet
 facet normal 2 0 0
  outer loop
   vertex 0 2 0
   vertex 0 2 2
   vertex 0 1 1
  endloop
 endfacet
 facet normal 2 0 0
  outer loop
   vertex 0 2 2
   vertex 0 0 2
   vertex 0 1 1
  endloop
 endfacet
 facet normal 2 0 0
  outer loop
   vertex 0 0 2
   vertex 0 0 0
   vertex 0 1 1
  endloop
 endfacet
 facet normal -2 0 0
  outer loop
   vertex 2 0 0
   vertex 2 0 2
   vertex 2 1 1
  endloop
 endfacet
 facet normal -2 0 0
  outer loop
   vertex 2 0 2
   vertex 2 2 2
   vertex 2 1 1
  endloop
 endfacet
 facet normal -2 0 0
  outer loop
   vertex 2 2 2
   vertex 2 2 0
   vertex 2 1 1
  endloop
 endfacet
 facet normal -2 0 0
  outer loop
   vertex 2 2 0
   vertex 2 0 0
   vertex 2 1 1
  endloop
 endfacet
 facet normal 2 0 0
  outer loop
   vertex 2 0 0
   vertex 2 2 0
   vertex 2 1 1
  endloop
 endfacet
 facet normal 2 0 0
  outer loop
   vertex 2 2 0
   vertex 2 2 2
   vertex 2 1 1
  endloop
 endfacet
 facet normal 2 0 0
  outer loop
   vertex 2 2 2
   vertex 2 0 2
   vertex 2 1 1
  endloop
 endfacet
 facet normal 2 0 0
  outer loop
   vertex 2 0 2
   vertex 2 0 0
   vertex 2 1 1
  endloop
 endfacet
 facet normal 0 2 0
  outer loop
   vertex 0 0 0
   vertex 0 0 2
   vertex 1 0 1
  endloop
 endfacet
 facet normal 0 2 0
  outer loop
   vertex 0 0 2
   vertex 2 0 2
   vertex 1 0 1
  endloop
 endfacet
 facet normal 0 2 0
  outer loop
   vertex 2 0 2
   vertex 2 0 0
   vertex 1 0 1
  endloop
 endfacet
 facet normal 0 2 0
  outer loop
   vertex 2 0 0
   vertex 0 0 0
   vertex 1 0 1
  endloop
 endfacet
 facet normal 0 -2 0
  outer loop
   vertex 0 0 0
   vertex 2 0 0
   vertex 1 0 1
  endloop
 endfacet
 facet normal 0 -2 0
  outer loop
   vertex 2 0 0
   vertex 2 0 2
   vertex 1 0 1
  endloop
 endfacet
 facet normal 0 -2 0
  outer loop
   vertex 2 0 2
   vertex 0 0 2
   vertex 1 0 1
  endloop
 endfacet
 facet normal 0 -2 0
  outer loop
   vertex 0 0 2
   vertex 0 0 0
   vertex 1 0 1
  endloop
 endfacet
 facet normal 0 2 0
  outer loop
   vertex 0 2 0
   vertex 0 2 2
   vertex 1 2 1
  endloop
 endfacet
 facet normal 0 2 0
  outer loop
   vertex 0 2 2
   vertex 2 2 2
   vertex 1 2 1
  endloop
 endfacet
 facet normal 0 2 0
  outer loop
   vertex 2 2 2
   vertex 2 2 0
   vertex 1 2 1
  endloop
 endfacet
 facet normal 0 2 0
  outer loop
   vertex 2 2 0
   vertex 0 2 0
   vertex 1 2 1
  endloop
 endfacet
 facet normal 0 -2 0
  outer loop
   vertex 0 2 0
   vertex 2 2 0
   vertex 1 2 1
  endloop
 endfacet
 facet normal 0 -2 0
  outer loop
   vertex 2 2 0
   vertex 2 2 2
   vertex 1 2 1
  endloop
 endfacet
 facet normal 0 -2 0
  outer loop
   vertex 2 2 2
   vertex 0 2 2
   vertex 1 2 1
  endloop
 endfacet
 facet normal 0 -2 0
  outer loop
   vertex 0 2 2
   vertex 0 2 0
   vertex 1 2 1
  endloop
 endfacet
 facet normal 0 2 0
  outer loop
   vertex 0 0.5 0
   vertex 0 0.5 2
   vertex 1 0.5 1
  endloop
 endfacet
 facet normal 0 2 0
  outer loop
   vertex 0 0.5 2
   vertex 2 0.5 2
   vertex 1 0.5 1
  endloop
 endfacet
 facet normal 0 2 0
  outer loop
   vertex 2 0.5 2
   vertex 2 0.5 0
   vertex 1 0.5 1
  endloop
 endfacet
 facet normal 0 2 0
  outer loop
   vertex 2 0.5 0
   vertex 0 0.5 0
   vertex 1 0.5 1
  endloop
 endfacet
 facet normal 0 -2 0
  outer loop
   vertex 0 0.5 0
   vertex 2 0.5 0
   vertex 1 0.5 1
  endloop
 endfacet
 facet normal 0 -2 0
  outer loop
   vertex 2 0.5 0
   vertex 2 0.5 2
   vertex 1 0.5 1
  endloop
 endfacet
 facet normal 0 -2 0
  outer loop
   vertex 2 0.5 2
   vertex 0 0.5 2
   vertex 1 0.5 1
  endloop
 endfacet
 facet normal 0 -2 0
  outer loop
   vertex 0 0.5 2
   vertex 0 0.5 0
   vertex 1 0.5 1
  endloop
 endfacet
 facet normal 0 2 0
  outer loop
   vertex 0 1 0
   vertex 0 1 2
   vertex 1 1 1
  endloop
 endfacet
 facet normal 0 2 0
  outer loop
   vertex 0 1 2
   vertex 2 1 2
   vertex 1 1 1
  endloop
 endfacet
 facet normal 0 2 0
  outer loop
   vertex 2 1 2
   vertex 2 1 0
   vertex 1 1 1
  endloop
 endfacet
 facet normal 0 2 0
  outer loop
   vertex 2 1 0
   vertex 0 1 0
   vertex 1 1 1
  endloop
 endfacet
 facet normal 0 -2 0
  outer loop
   vertex 0 1 0
   vertex 2 1 0
   vertex 1 1 1
  endloop
 endfacet
 facet normal 0 -2 0
  outer loop
   vertex 2 1 0
   vertex 2 1 2
   vertex 1 1 1
  endloop
 endfacet
 facet normal 0 -2 0
  outer loop
   vertex 2 1 2
   vertex 0 1 2
   vertex 1 1 1
  endloop
 endfacet
 facet normal 0 -2 0
  outer loop
   vertex 0 1 2
   vertex 0 1 0
   vertex 1 1 1
  endloop
 endfacet
 facet normal 0 2 0
  outer loop
   vertex 0 1.5 0
   vertex 0 1.5 2
   vertex 1 1.5 1
  endloop
 endfacet
 facet normal 0 2 0
  outer loop
   vertex 0 1.5 2
   vertex 2 1.5 2
   vertex 1 1.5 1
  endloop
 endfacet
 facet normal 0 2 0
  outer loop
   vertex 2 1.5 2
   vertex 2 1.5 0
   vertex 1 1.5 1
  endloop
 endfacet
 facet normal 0 2 0
  outer loop
   vertex 2 1.5 0
   vertex 0 1.5 0
   vertex 1 1.5 1
  endloop
 endfacet
 facet normal 0 -2 0
  outer loop
   vertex 0 1.5 0
   vertex 2 1.5 0
   vertex 1 1.5 1
  endloop
 endfacet
 facet normal 0 -2 0
  outer loop
   vertex 2 1.5 0
   vertex 2 1.5 2
   vertex 1 1.5 1
  endloop
 endfacet
 facet normal 0 -2 0
  outer loop
   vertex 2 1.5 2
   vertex 0 1.5 2
   vertex 1 1.5 1
  endloop
 endfacet
 facet normal 0 -2 0
  outer loop
   vertex 0 1.5 2
   vertex 0 1.5 0
   vertex 1 1.5 1
  endloop
 endfacet
endsolid STL
 facet normal -2 0 0
  outer loop
   vertex 0 0 0
   vertex 0 0 2
   vertex 0 1 1
  endloop
 endfacet
 facet normal -2 0 0
  outer loop
   vertex 0 0 2
   vertex 0 2 2
   vertex 0 1 1
  endloop
 endfacet
 facet normal -2 0 0
  outer loop
   vertex 0 2 2
   vertex 0 2 0
   vertex 0 1 1
  endloop
 endfacet
 facet normal -2 0 0
  outer loop
   vertex 0 2 0
   vertex 0 0 0
   vertex 0 1 1
  endloop
 endfacet
 facet normal 2 0 0
  outer loop
   vertex 0 0 0
   vertex 0 2 0
   vertex 0 1 1
  endloop
 endfacet
 facet normal 2 0 0
  outer loop
   vertex 0 2 0
   vertex 0 2 2
   vertex 0 1 1
  endloop
 endfacet
 facet normal 2 0 0
  outer loop
   vertex 0 2 2
   vertex 0 0 2
   vertex 0 1 1
  endloop
 endfacet
 facet normal 2 0 0
  outer loop
   vertex 0 0 2
   vertex 0 0 0
   vertex 0 1 1
  endloop
 endfacet
 facet normal -2 0 0
  outer loop
   vertex 1 0 0
   vertex 1 0 2
   vertex 1 1 1
  endloop
 endfacet
 facet normal -2 0 0
  outer loop
   vertex 1 0 2
   vertex 1 2 2
   vertex 1 1 1
  endloop
 endfacet
 facet normal -2 0 0
  outer loop
   vertex 1 2 2
   vertex 1 2 0
   vertex 1 1 1
  endloop
 endfacet
 facet normal -2 0 0
  outer loop
   vertex 1 2 0
   vertex 1 0 0
   vertex 1 1 1
  endloop
 endfacet
 facet normal 2 0 0
  outer loop
   vertex 1 0 0
   vertex 1 2 0
   vertex 1 1 1
  endloop
 endfacet
 facet normal 2 0 0
  outer loop
   vertex 1 2 0
   vertex 1 2 2
   vertex 1 1 1
  endloop
 endfacet
 facet normal 2 0 0
  outer loop
   vertex 1 2 2
   vertex 1 0 2
   vertex 1 1 1
  endloop
 endfacet
 facet normal 2 0 0
  outer loop
   vertex 1 0 2
   vertex 1 0 0
   vertex 1 1 1
  endloop
 endfacet
 facet normal 0 1 0
  outer loop
   vertex 0 0 0
   vertex 0 0 2
   vertex 0.5 0 1
  endloop
 endfacet
 facet normal 0 1 0
  outer loop
   vertex 0 0 2
   vertex 1 0 2
   vertex 0.5 0 1
  endloop
 endfacet
 facet normal 0 1 0
  outer loop
   vertex 1 0 2
   vertex 1 0 0
   vertex 0.5 0 1
  endloop
 endfacet
 facet normal 0 1 0
  outer loop
   vertex 1 0 0
   vertex 0 0 0
   vertex 0.5 0 1
  endloop
 endfacet
 facet normal 0 -1 0
  outer loop
   vertex 0 0 0
   vertex 1 0 0
   vertex 0.5 0 1
  endloop
 endfacet
 facet normal 0 -1 0
  outer loop
   vertex 1 0 0
   vertex 1 0 2
   vertex 0.5 0 1
  endloop
 endfacet
 facet normal 0 -1 0
  outer loop
   vertex 1 0 2
   vertex 0 0 2
   vertex 0.5 0 1
  endloop
 endfacet
 facet normal 0 -1 0
  outer loop
   vertex 0 0 2
   vertex 0 0 0
   vertex 0.5 0 1
  endloop
 endfacet
 facet normal 0 1 0
  outer loop
   vertex 0 2 0
   vertex 0 2 2
   vertex 0.5 2 1
  endloop
 endfacet
 facet normal 0 1 0
  outer loop
   vertex 0 2 2
   vertex 1 2 2
   vertex 0.5 2 1
  endloop
 endfacet
 facet normal 0 1 0
  outer loop
   vertex 1 2 2
   vertex 1 2 0
   vertex 0.5 2 1
  endloop
 endfacet
 facet normal 0 1 0
  outer loop
   vertex 1 2 0
   vertex 0 2 0
   vertex 0.5 2 1
  endloop
 endfacet
 facet normal 0 -1 0
  outer loop
   vertex 0 2 0
   vertex 1 2 0
   vertex 0.5 2 1
  endloop
 endfacet
 facet normal 0 -1 0
  outer loop
   vertex 1 2 0
   vertex 1 2 2
   vertex 0.5 2 1
  endloop
 endfacet
 facet normal 0 -1 0
  outer loop
   vertex 1 2 2
   vertex 0 2 2
   vertex 0.5 2 1
  endloop
 endfacet
 facet normal 0 -1 0
  outer loop
   vertex 0 2 2
   vertex 0 2 0
   vertex 0.5 2 1
  endloop
 endfacet
 facet normal 0 1 0
  outer loop
   vertex 0 0.4 0
   vertex 0 0.4 2
   vertex 0.5 0.4 1
  endloop
 endfacet
 facet normal 0 1 0
  outer loop
   vertex 0 0.4 2
   vertex 1 0.4 2
   vertex 0.5 0.4 1
  endloop
 endfacet
 facet normal 0 1 0
  outer loop
   vertex 1 0.4 2
   vertex 1 0.4 0
   vertex 0.5 0.4 1
  endloop
 endfacet
 facet normal 0 1 0
  outer loop
   vertex 1 0.4 0
   vertex 0 0.4 0
   vertex 0.5 0.4 1
  endloop
 endfacet
 facet normal 0 -1 0
  outer loop
   vertex 0 0.4 0
   vertex 1 0.4 0
   vertex 0.5 0.4 1
  endloop
 endfacet
 facet normal 0 -1 0
  outer loop
   vertex 1 0.4 0
   vertex 1 0.4 2
   vertex 0.5 0.4 1
  endloop
 endfacet
 facet normal 0 -1 0
  outer loop
   vertex 1 0.4 2
   vertex 0 0.4 2
   vertex 0.5 0.4 1
  endloop
 endfacet
 facet normal 0 -1 0
  outer loop
   vertex 0 0.4 2
   vertex 0 0.4 0
   vertex 0.5 0.4 1
  endloop
 endfacet
 facet normal 0 1 0
  outer loop
   vertex 0 0.8 0
   vertex 0 0.8 2
   vertex 0.5 0.8 1
  endloop
 endfacet
 facet normal 0 1 0
  outer loop
   vertex 0 0.8 2
   vertex 1 0.8 2
   vertex 0.5 0.8 1
  endloop
 endfacet
 facet normal 0 1 0
  outer loop
   vertex 1 0.8 2
   vertex 1 0.8 0
   vertex 0.5 0.8 1
  endloop
 endfacet
 facet normal 0 1 0
  outer loop
   vertex 1 0.8 0
   vertex 0 0.8 0
   vertex 0.5 0.8 1
  endloop
 endfacet
 facet normal 0 -1 0
  outer loop
   vertex 0 0.8 0
   vertex 1 0.8 0
   vertex 0.5 0.8 1
  endloop
 endfacet
 facet normal 0 -1 0
  outer loop
   vertex 1 0.8 0
   vertex 1 0.8 2
   vertex 0.5 0.8 1
  endloop
 endfacet
 facet normal 0 -1 0
  outer loop
   vertex 1 0.8 2
   vertex 0 0.8 2
   vertex 0.5 0.8 1
  endloop
 endfacet
 facet normal 0 -1 0
  outer loop
   vertex 0 0.8 2
   vertex 0 0.8 0
   vertex 0.5 0.8 1
  endloop
 endfacet
 facet normal 0 1 0
  outer loop
   vertex 0 1.2000000000000002 0
   vertex 0 1.2000000000000002 2
   vertex 0.5 1.2000000000000002 1
  endloop
 endfacet
 facet normal 0 1 0
  outer loop
   vertex 0 1.2000000000000002 2
   vertex 1 1.2000000000000002 2
   vertex 0.5 1.2000000000000002 1
  endloop
 endfacet
 facet normal 0 1 0
  outer loop
   vertex 1 1.2000000000000002 2
   vertex 1 1.2000000000000002 0
   vertex 0.5 1.2000000000000002 1
  endloop
 endfacet
 facet normal 0 1 0
  outer loop
   vertex 1 1.2000000000000002 0
   vertex 0 1.2000000000000002 0
   vertex 0.5 1.2000000000000002 1
  endloop
 endfacet
 facet normal 0 -1 0
  outer loop
   vertex 0 1.2000000000000002 0
   vertex 1 1.2000000000000002 0
   vertex 0.5 1.2000000000000002 1
  endloop
 endfacet
 facet normal 0 -1 0
  outer loop
   vertex 1 1.2000000000000002 0
   vertex 1 1.2000000000000002 2
   vertex 0.5 1.2000000000000002 1
  endloop
 endfacet
 facet normal 0 -1 0
  outer loop
   vertex 1 1.2000000000000002 2
   vertex 0 1.2000000000000002 2
   vertex 0.5 1.2000000000000002 1
  endloop
 endfacet
 facet normal 0 -1 0
  outer loop
   vertex 0 1.2000000000000002 2
   vertex 0 1.2000000000000002 0
   vertex 0.5 1.2000000000000002 1
  endloop
 endfacet
 facet normal 0 1 0
  outer loop
   vertex 0 1.6 0
   vertex 0 1.6 2
   vertex 0.5 1.6 1
  endloop
 endfacet
 facet normal 0 1 0
  outer loop
   vertex 0 1.6 2
   vertex 1 1.6 2
   vertex 0.5 1.6 1
  endloop
 endfacet
 facet normal 0 1 0
  outer loop
   vertex 1 1.6 2
   vertex 1 1.6 0
   vertex 0.5 1.6 1
  endloop
 endfacet
 facet normal 0 1 0
  outer loop
   vertex 1 1.6 0
   vertex 0 1.6 0
   vertex 0.5 1.6 1
  endloop
 endfacet
 facet normal 0 -1 0
  outer loop
   vertex 0 1.6 0
   vertex 1 1.6 0
   vertex 0.5 1.6 1
  endloop
 endfacet
 facet normal 0 -1 0
  outer loop
   vertex 1 1.6 0
   vertex 1 1.6 2
   vertex 0.5 1.6 1
  endloop
 endfacet
 facet normal 0 -1 0
  outer loop
   vertex 1 1.6 2
   vertex 0 1.6 2
   vertex 0.5 1.6 1
  endloop
 endfacet
 facet normal 0 -1 0
  outer loop
   vertex 0 1.6 2
   vertex 0 1.6 0
   vertex 0.5 1.6 1
  endloop
 endfacet
endsolid STL